<svg xmlns="http://www.w3.org/2000/svg" width="17.296" height="19.679" viewBox="0 0 17.296 19.679">
  <g id="notification" transform="translate(-30.999)">
    <path id="Path_14" data-name="Path 14" d="M45.6,10.1V8.264a5.968,5.968,0,0,0-4.228-5.7V1.73a1.73,1.73,0,0,0-3.459,0v.833a5.968,5.968,0,0,0-4.228,5.7V10.1a9.053,9.053,0,0,1-2.53,6.294.577.577,0,0,0,.416.976h5.247a2.883,2.883,0,0,0,5.649,0h5.247a.577.577,0,0,0,.416-.976A9.053,9.053,0,0,1,45.6,10.1ZM39.07,1.73a.577.577,0,0,1,1.153,0v.6c-.19-.018-.382-.028-.577-.028s-.387.01-.577.028Zm.577,16.8a1.732,1.732,0,0,1-1.63-1.153h3.261A1.732,1.732,0,0,1,39.647,18.526ZM32.818,16.22A10.194,10.194,0,0,0,34.842,10.1V8.264a4.8,4.8,0,1,1,9.609,0V10.1a10.194,10.194,0,0,0,2.024,6.117Z" transform="translate(0 0)"/>
    <path id="Path_15" data-name="Path 15" d="M391.857,57.791a.577.577,0,1,0,1.153,0,8.592,8.592,0,0,0-2.533-6.115.577.577,0,1,0-.815.815A7.446,7.446,0,0,1,391.857,57.791Z" transform="translate(-344.715 -49.527)"/>
    <path id="Path_16" data-name="Path 16" d="M31.577,58.368a.577.577,0,0,0,.577-.577,7.446,7.446,0,0,1,2.2-5.3.577.577,0,1,0-.815-.815A8.591,8.591,0,0,0,31,57.792.577.577,0,0,0,31.577,58.368Z" transform="translate(-0.001 -49.528)"/>
  </g>
</svg>
