<svg xmlns="http://www.w3.org/2000/svg" width="39.05" height="39.05" viewBox="0 0 39.05 39.05">
  <g id="purchase_entry" transform="translate(0 -0.388)">
    <path id="Path_96" data-name="Path 96" d="M449.828,100.348h1.3v1.3h-1.3Zm0,0" transform="translate(-420.54 -93.452)" fill="#1bbaa4"/>
    <path id="Path_97" data-name="Path 97" d="M409.844,100.348h1.3v1.3h-1.3Zm0,0" transform="translate(-383.159 -93.452)" fill="#1bbaa4"/>
    <path id="Path_98" data-name="Path 98" d="M369.859,100.348h1.3v1.3h-1.3Zm0,0" transform="translate(-345.778 -93.452)" fill="#1bbaa4"/>
    <path id="Path_99" data-name="Path 99" d="M129.949,100.348h1.3v1.3h-1.3Zm0,0" transform="translate(-121.488 -93.452)" fill="#1bbaa4"/>
    <path id="Path_100" data-name="Path 100" d="M273.149,550.172h-2.6a.651.651,0,0,0,0,1.3h2.6a.651.651,0,1,0,0-1.3Zm0,0" transform="translate(-252.322 -513.989)" fill="#1bbaa4"/>
    <path id="Path_101" data-name="Path 101" d="M123.009,18.2a.651.651,0,0,0-.5-.238h-3.529L117.3,15.054V3.642A3.258,3.258,0,0,0,114.045.388H93.218a3.258,3.258,0,0,0-3.254,3.254V13.4h1.3V5.594H116V12.8l-.738-1.278a.651.651,0,1,0-1.127.651l3.342,5.788h-8.159l3.341-5.788a.651.651,0,0,0-1.127-.651l-3.718,6.439h-3.529a.65.65,0,0,0-.638.781l2.6,13.017a.651.651,0,0,0,.638.521H116v1.952H91.266V29.024h-1.3v7.159a3.258,3.258,0,0,0,3.254,3.254h20.827a3.258,3.258,0,0,0,3.254-3.254V32.278h2.6a.651.651,0,0,0,.638-.521l2.6-13.017a.652.652,0,0,0-.135-.543ZM91.266,4.293V3.642a1.952,1.952,0,0,1,1.953-1.953h20.827A1.952,1.952,0,0,1,116,3.642v.651Zm22.779,33.843H93.218a1.953,1.953,0,0,1-1.953-1.952v-.651H116v.651a1.953,1.953,0,0,1-1.953,1.952Zm0-18.874H117.3V30.977h-3.254Zm-1.3,11.715h-3.254V19.262h3.254Zm-7.667-11.715h3.111V30.977h-.768Zm14.292,11.715H118.6V19.262h3.111Zm0,0" transform="translate(-84.106)" fill="#1bbaa4"/>
    <path id="Path_102" data-name="Path 102" d="M13.017,226.809a6.508,6.508,0,1,0-6.508,6.508A6.508,6.508,0,0,0,13.017,226.809Zm-11.715,0a5.207,5.207,0,1,1,5.207,5.207A5.206,5.206,0,0,1,1.3,226.809Zm0,0" transform="translate(0 -205.595)" fill="#1bbaa4"/>
    <path id="Path_103" data-name="Path 103" d="M72.576,268.095v-.771a1.948,1.948,0,0,0-.651-3.785.651.651,0,1,1,.651-.651h1.3a1.953,1.953,0,0,0-1.3-1.833v-.77h-1.3v.77a1.948,1.948,0,0,0,.651,3.785.651.651,0,1,1-.651.651h-1.3a1.953,1.953,0,0,0,1.3,1.833v.771Zm0,0" transform="translate(-65.417 -242.976)" fill="#1bbaa4"/>
    <path id="Path_104" data-name="Path 104" d="M189.926,180.316h1.3v1.3h-1.3Zm0,0" transform="translate(-177.56 -168.214)" fill="#1bbaa4"/>
    <path id="Path_105" data-name="Path 105" d="M219.914,180.316h5.207v1.3h-5.207Zm0,0" transform="translate(-205.595 -168.214)" fill="#1bbaa4"/>
    <path id="Path_106" data-name="Path 106" d="M189.926,210.3h1.3v1.3h-1.3Zm0,0" transform="translate(-177.56 -196.25)" fill="#1bbaa4"/>
    <path id="Path_107" data-name="Path 107" d="M219.914,210.3h5.207v1.3h-5.207Zm0,0" transform="translate(-205.595 -196.25)" fill="#1bbaa4"/>
  </g>
</svg>
