<svg xmlns="http://www.w3.org/2000/svg" width="33.58" height="41.68" viewBox="0 0 33.58 41.68">
  <g id="purchase_dashboard" transform="translate(-31.5 -23.638)">
    <path id="Path_122" data-name="Path 122" d="M64.5,37.923l-8.4-3.255a8.281,8.281,0,1,0-15.623,0l-8.4,3.255a.9.9,0,0,0-.576.843V58.256a.9.9,0,0,0,.577.843l15.886,6.158a.907.907,0,0,0,.327.061.9.9,0,0,0,.322-.067l0,.006L64.5,59.1a.9.9,0,0,0,.576-.843V38.765a.9.9,0,0,0-.576-.843Zm-2.828.843L58.743,39.9l-4.86-1.87A8.325,8.325,0,0,0,55.316,36.3Zm-9.571.52,4.133,1.59-2.334.9-4.281-1.672A8.225,8.225,0,0,0,52.1,39.285Zm2.813,4.039,3.036-1.177v3.767l-.508-.331a.9.9,0,0,0-1.152.137l-1.377,1.461ZM48.29,25.469a6.473,6.473,0,1,1-6.473,6.473A6.473,6.473,0,0,1,48.29,25.469ZM41.781,37.041l-1.21-.473.693-.269a8.3,8.3,0,0,0,.517.743Zm-3.7.494,13.331,5.211L48.29,43.954,34.9,38.765Zm-4.769,20.1V40.086l14.078,5.457V63.094Zm15.886,5.457V45.543l3.915-1.519V49.46a.9.9,0,0,0,.571.84.894.894,0,0,0,.333.064.9.9,0,0,0,.658-.284l2.42-2.569,1.272.827a.9.9,0,0,0,1.395-.757V41.446l3.512-1.361V57.637Z" transform="translate(0)" fill="#1bbaa4"/>
    <path id="Path_123" data-name="Path 123" d="M58.4,39.664a.9.9,0,0,0,1.188-.018l4.384-3.941a.9.9,0,1,0-1.209-1.343l-3.8,3.414-1.73-1.462A.9.9,0,1,0,56.07,37.7Z" transform="translate(-11.722 -5.062)" fill="#1bbaa4"/>
  </g>
</svg>
