<svg xmlns="http://www.w3.org/2000/svg" width="38.599" height="34.179" viewBox="0 0 38.599 34.179">
  <g id="photo" transform="translate(0 -24)">
    <g id="Group_298" data-name="Group 298" transform="translate(0 24)">
      <g id="Group_297" data-name="Group 297" transform="translate(0 0)">
        <circle id="Ellipse_11" data-name="Ellipse 11" cx="2.652" cy="2.652" r="2.652" transform="translate(11.896 8.434)" fill="#707070"/>
        <path id="Path_143" data-name="Path 143" d="M36.315,44.846a8.166,8.166,0,0,0-4.567-2.173V29.193a5.3,5.3,0,0,0-1.51-3.683A5.146,5.146,0,0,0,26.555,24H5.193A5.3,5.3,0,0,0,1.51,25.51,5.146,5.146,0,0,0,0,29.193V51.181a5.3,5.3,0,0,0,1.51,3.683,5.146,5.146,0,0,0,3.683,1.51H25.855a7.792,7.792,0,0,0,10.46-11.528ZM1.952,29.193a3.083,3.083,0,0,1,.958-2.247,3.232,3.232,0,0,1,2.284-.958H26.555A3.27,3.27,0,0,1,29.8,29.23V40.721L24.345,35.27a.989.989,0,0,0-1.4,0l-8.213,8.25-5.561-5.6a.989.989,0,0,0-1.4,0L1.952,43.815Zm3.2,25.3v-.074a3.232,3.232,0,0,1-2.284-.958,3.361,3.361,0,0,1-.921-2.284V46.614l6.519-6.556,5.561,5.561a1.024,1.024,0,0,0,1.4,0l8.213-8.25,5.377,5.414-.331.11a3.42,3.42,0,0,0-.479.147c-.147.037-.295.11-.442.147a1.1,1.1,0,0,0-.295.147,3.423,3.423,0,0,0-.368.184l-.552.331c-.11.074-.184.11-.295.184-.074.037-.11.074-.184.11a4.444,4.444,0,0,0-.884.773,7.791,7.791,0,0,0-2.284,5.525,8.1,8.1,0,0,0,.184,1.621c.037.147.074.258.11.405.11.368.221.737.368,1.1v.037a6.756,6.756,0,0,0,.479.884Zm29.722,0a5.826,5.826,0,0,1-8.14.074c-.147-.147-.295-.331-.442-.479-.11-.11-.221-.258-.331-.368A3.5,3.5,0,0,1,25.6,53.1c-.074-.147-.147-.258-.221-.405a3.111,3.111,0,0,1-.184-.626c-.037-.147-.11-.331-.147-.479a6.1,6.1,0,0,1-.11-1.179,5.912,5.912,0,0,1,1.694-4.125,5.694,5.694,0,0,1,4.125-1.694,5.912,5.912,0,0,1,4.125,1.694,5.757,5.757,0,0,1,1.694,4.125A5.891,5.891,0,0,1,34.879,54.5Z" transform="translate(0 -24)" fill="#707070"/>
        <path id="Path_144" data-name="Path 144" d="M302.559,264.695a1.287,1.287,0,0,0-.331-.221,1.074,1.074,0,0,0-.331-.074h-.074a1.074,1.074,0,0,0-.331.074.869.869,0,0,0-.331.221l-2.284,2.283a.99.99,0,0,0,1.4,1.4l.589-.589v4.051a.994.994,0,1,0,1.989,0v-4.051l.589.589a.99.99,0,0,0,1.4-1.4Z" transform="translate(-271.106 -242.265)" fill="#707070"/>
      </g>
    </g>
  </g>
</svg>
