<svg xmlns="http://www.w3.org/2000/svg" width="18.787" height="20.667" viewBox="0 0 18.787 20.667">
  <g id="Group_310" data-name="Group 310" transform="translate(280.717 -1269)">
    <g id="warranty" transform="translate(-304.002 1269)">
      <g id="Group_41" data-name="Group 41" transform="translate(23.285 0)">
        <g id="Group_40" data-name="Group 40" transform="translate(0 0)">
          <path id="Path_77" data-name="Path 77" d="M41.738,3.4l-.027,0A25.08,25.08,0,0,1,32.889.06a.4.4,0,0,0-.423,0A24.789,24.789,0,0,1,23.7,3.39l-.082.014a.4.4,0,0,0-.334.4V9.086a11.848,11.848,0,0,0,9.307,11.572.405.405,0,0,0,.173,0A11.854,11.854,0,0,0,42.072,9.08V3.8A.4.4,0,0,0,41.738,3.4ZM41.265,9.08A11.116,11.116,0,0,1,32.678,19.85,11.108,11.108,0,0,1,24.092,9.086V4.14A25.585,25.585,0,0,0,32.679.877a25.871,25.871,0,0,0,8.586,3.263Z" transform="translate(-23.285 0)" fill="#1bbaa4"/>
        </g>
      </g>
      <g id="Group_44" data-name="Group 44" transform="translate(25.112 2.122)">
        <g id="Group_43" data-name="Group 43" transform="translate(0)">
          <g id="Group_42" data-name="Group 42">
            <path id="Path_78" data-name="Path 78" d="M246.167,53.372a.4.4,0,0,0,.2-.053l0,0,0,0a.4.4,0,0,0-.4-.7l-.009.005a.4.4,0,0,0,.2.755Z" transform="translate(-238.61 -52.561)" fill="#1bbaa4"/>
            <path id="Path_79" data-name="Path 79" d="M74.333,73.286a26.625,26.625,0,0,1-5.467,1.908.4.4,0,0,0-.313.393V79.37a9.916,9.916,0,0,0,.088,1.312.4.4,0,1,0,.8-.107,9.1,9.1,0,0,1-.08-1.2V75.906a27.432,27.432,0,0,0,5.32-1.892.4.4,0,1,0-.348-.729Z" transform="translate(-68.553 -72.411)" fill="#1bbaa4"/>
            <path id="Path_80" data-name="Path 80" d="M289.834,121.23a.4.4,0,0,0-.4.4v3.783a9.267,9.267,0,0,1-5.4,8.388.4.4,0,1,0,.337.734,10.089,10.089,0,0,0,4.247-3.679,9.966,9.966,0,0,0,1.625-5.443v-3.783A.4.4,0,0,0,289.834,121.23Z" transform="translate(-275.105 -118.458)" fill="#1bbaa4"/>
            <path id="Path_81" data-name="Path 81" d="M246.313,445.34l-.015,0a.4.4,0,1,0,.207.78l.015,0a.4.4,0,0,0-.207-.78Z" transform="translate(-238.835 -429.473)" fill="#1bbaa4"/>
          </g>
        </g>
      </g>
      <g id="Group_46" data-name="Group 46" transform="translate(27.105 4.762)">
        <g id="Group_45" data-name="Group 45" transform="translate(0)">
          <path id="Path_82" data-name="Path 82" d="M128.916,123.607a1.065,1.065,0,0,0-.16-1.323l-.419-.413a.262.262,0,0,1-.078-.206l.042-.59a1.064,1.064,0,0,0-.758-1.1l-.555-.167a.262.262,0,0,1-.165-.147l-.232-.536a1.076,1.076,0,0,0-1.187-.624l-.564.111a.262.262,0,0,1-.215-.053l-.449-.362a1.075,1.075,0,0,0-1.344,0l-.449.362a.262.262,0,0,1-.215.053l-.564-.111a1.076,1.076,0,0,0-1.187.624l-.233.536a.262.262,0,0,1-.165.147l-.555.167a1.064,1.064,0,0,0-.758,1.1l.042.59a.262.262,0,0,1-.078.206l-.419.413a1.065,1.065,0,0,0-.16,1.323l.31.5a.262.262,0,0,1,.026.218l-.182.564a1.064,1.064,0,0,0,.472,1.247l.5.3a.262.262,0,0,1,.125.182l.1.58a1.063,1.063,0,0,0,1,.889l.576.029a.262.262,0,0,1,.2.1l.351.462a1.075,1.075,0,0,0,.855.421,1.058,1.058,0,0,0,.449-.1l.52-.243a.262.262,0,0,1,.222,0l.52.243a1.075,1.075,0,0,0,1.3-.322l.351-.462a.262.262,0,0,1,.2-.1l.576-.029a1.063,1.063,0,0,0,1-.889l.1-.58a.262.262,0,0,1,.125-.182l.5-.3a1.064,1.064,0,0,0,.472-1.247l-.181-.564a.262.262,0,0,1,.026-.218Zm-.688-.423-.31.5a1.069,1.069,0,0,0-.107.888l.181.564a.261.261,0,0,1-.116.306l-.5.3a1.068,1.068,0,0,0-.508.74l-.1.58a.261.261,0,0,1-.246.218l-.576.029a1.067,1.067,0,0,0-.8.421l-.351.462a.264.264,0,0,1-.32.079l-.52-.243a1.067,1.067,0,0,0-.905,0l-.52.243a.264.264,0,0,1-.32-.079l-.351-.462a1.067,1.067,0,0,0-.8-.421l-.576-.029a.261.261,0,0,1-.246-.218l-.1-.58a1.068,1.068,0,0,0-.508-.74l-.5-.3a.261.261,0,0,1-.116-.306l.182-.564a1.069,1.069,0,0,0-.107-.888l-.31-.5a.261.261,0,0,1,.039-.324l.419-.413a1.068,1.068,0,0,0,.316-.838l-.042-.59a.261.261,0,0,1,.186-.27l.555-.167a1.068,1.068,0,0,0,.673-.6l.233-.536a.264.264,0,0,1,.241-.158.258.258,0,0,1,.05,0l.564.111a1.066,1.066,0,0,0,.878-.217l.449-.362a.264.264,0,0,1,.33,0l.449.362a1.067,1.067,0,0,0,.878.217l.564-.111a.264.264,0,0,1,.291.153l.232.536a1.068,1.068,0,0,0,.673.6l.555.167a.261.261,0,0,1,.186.27l-.042.59a1.068,1.068,0,0,0,.316.838l.419.413A.261.261,0,0,1,128.228,123.184Z" transform="translate(-117.929 -117.96)" fill="#1bbaa4"/>
        </g>
      </g>
      <g id="Group_48" data-name="Group 48" transform="translate(30.957 8.218)">
        <g id="Group_47" data-name="Group 47">
          <path id="Path_83" data-name="Path 83" d="M216.121,203.624a.4.4,0,0,0-.55.153l-2.17,3.844a.4.4,0,1,0,.7.4l2.17-3.845A.4.4,0,0,0,216.121,203.624Z" transform="translate(-213.348 -203.572)" fill="#1bbaa4"/>
        </g>
      </g>
      <g id="Group_50" data-name="Group 50" transform="translate(32.878 10.678)">
        <g id="Group_49" data-name="Group 49">
          <path id="Path_84" data-name="Path 84" d="M262.153,264.536a1.211,1.211,0,1,0,1.211,1.211A1.212,1.212,0,0,0,262.153,264.536Zm0,1.615a.4.4,0,1,1,.4-.4A.4.4,0,0,1,262.153,266.151Z" transform="translate(-260.942 -264.536)" fill="#1bbaa4"/>
        </g>
      </g>
      <g id="Group_52" data-name="Group 52" transform="translate(30.057 7.567)">
        <g id="Group_51" data-name="Group 51">
          <path id="Path_85" data-name="Path 85" d="M192.27,187.463a1.211,1.211,0,1,0,1.211,1.211A1.212,1.212,0,0,0,192.27,187.463Zm0,1.615a.4.4,0,1,1,.4-.4A.4.4,0,0,1,192.27,189.078Z" transform="translate(-191.059 -187.463)" fill="#1bbaa4"/>
        </g>
      </g>
    </g>
  </g>
</svg>
