<svg xmlns="http://www.w3.org/2000/svg" width="24.004" height="16.446" viewBox="0 0 24.004 16.446">
  <g id="message" transform="translate(0 -80.609)">
    <g id="Group_118" data-name="Group 118" transform="translate(0 80.609)">
      <path id="Path_140" data-name="Path 140" d="M21.894,80.609H2.11A2.112,2.112,0,0,0,0,82.719V94.945a2.112,2.112,0,0,0,2.11,2.11H21.894A2.112,2.112,0,0,0,24,94.945V82.719A2.112,2.112,0,0,0,21.894,80.609Zm-.275,1.406-.282.234-8.5,7.077a1.308,1.308,0,0,1-1.674,0l-8.5-7.077-.282-.234ZM1.406,83.031,8.331,88.8,1.406,93.4ZM21.894,95.648H2.11a.7.7,0,0,1-.689-.563l8.038-5.349.807.672a2.715,2.715,0,0,0,3.474,0l.807-.672,8.038,5.349A.7.7,0,0,1,21.894,95.648Zm.7-2.243L15.673,88.8,22.6,83.031Z" transform="translate(0 -80.609)" fill="#1bbaa4"/>
    </g>
  </g>
</svg>
