<svg id="share_1_" data-name="share (1)" xmlns="http://www.w3.org/2000/svg" width="19.475" height="19.475" viewBox="0 0 19.475 19.475">
  <path id="Path_128" data-name="Path 128" d="M142.439,5.664,137.165.187a.609.609,0,0,0-1.047.423V3.247h-.2A7.921,7.921,0,0,0,128,11.158v1.217a.6.6,0,0,0,.474.582.544.544,0,0,0,.134.016.63.63,0,0,0,.556-.346,6.656,6.656,0,0,1,5.987-3.7h.964v2.637a.609.609,0,0,0,1.047.422l5.274-5.477a.609.609,0,0,0,0-.845Zm0,0" transform="translate(-123.135 -0.001)" fill="#1bbaa4"/>
  <path id="Path_129" data-name="Path 129" d="M17.044,101.569H2.438A2.437,2.437,0,0,1,0,99.134V87.774A2.437,2.437,0,0,1,2.438,85.34H4.873a.811.811,0,1,1,0,1.623H2.438a.812.812,0,0,0-.812.812v11.36a.812.812,0,0,0,.812.812H17.044a.812.812,0,0,0,.811-.812V92.643a.811.811,0,1,1,1.623,0v6.491a2.437,2.437,0,0,1-2.434,2.434Zm0,0" transform="translate(-0.004 -82.094)" fill="#1bbaa4"/>
</svg>
