<svg xmlns="http://www.w3.org/2000/svg" width="34.246" height="38.285" viewBox="0 0 34.246 38.285">
  <g id="invoice_created" transform="translate(-27.005 -0.285)">
    <g id="Group_54" data-name="Group 54" transform="translate(27.005 0)">
      <g id="Group_53" data-name="Group 53" transform="translate(0 0)">
        <path id="Path_86" data-name="Path 86" d="M60.5,18.395H54.969V.748A.748.748,0,0,0,53.692.219L51.574,2.337,49.456.219a.748.748,0,0,0-1.058,0L46.28,2.338,44.162.219a.748.748,0,0,0-1.058,0L40.986,2.338,38.868.219a.748.748,0,0,0-1.057,0L35.692,2.338,33.574.219a.748.748,0,0,0-1.058,0L30.4,2.338,28.28.219A.747.747,0,0,0,27,.768V34.4a3.893,3.893,0,0,0,3.888,3.888h26.47A3.893,3.893,0,0,0,61.251,34.4V19.143A.748.748,0,0,0,60.5,18.395ZM30.893,36.79A2.4,2.4,0,0,1,28.5,34.4V2.554L29.87,3.924a.748.748,0,0,0,1.058,0l2.118-2.118,2.118,2.118a.748.748,0,0,0,1.058,0L38.34,1.805l2.118,2.118a.748.748,0,0,0,1.057,0l2.118-2.118,2.118,2.118a.748.748,0,0,0,1.058,0l2.118-2.118,2.118,2.118a.748.748,0,0,0,1.057,0l1.371-1.37V19.143c0,.007,0,.013,0,.02V34.4A3.868,3.868,0,0,0,54.3,36.79H30.893ZM59.755,34.4a2.393,2.393,0,0,1-4.785,0V19.89h4.785Z" transform="translate(-27.005 0.285)" fill="#1bbaa4"/>
      </g>
    </g>
    <g id="Group_56" data-name="Group 56" transform="translate(38.145 6.918)">
      <g id="Group_55" data-name="Group 55">
        <path id="Path_87" data-name="Path 87" d="M178.837,97.474a1.166,1.166,0,1,1,1.346-1.152.748.748,0,1,0,1.5,0,2.69,2.69,0,0,0-2.094-2.554v-.507a.748.748,0,1,0-1.5,0v.507A2.69,2.69,0,0,0,176,96.321a2.753,2.753,0,0,0,2.841,2.648,1.166,1.166,0,1,1-1.346,1.152.748.748,0,1,0-1.5,0,2.69,2.69,0,0,0,2.094,2.554v.61a.748.748,0,1,0,1.5,0v-.61a2.69,2.69,0,0,0,2.094-2.554A2.753,2.753,0,0,0,178.837,97.474Z" transform="translate(-175.996 -92.513)" fill="#1bbaa4"/>
      </g>
    </g>
    <g id="Group_58" data-name="Group 58" transform="translate(46.294 11.879)">
      <g id="Group_57" data-name="Group 57">
        <path id="Path_88" data-name="Path 88" d="M287.176,158.856h-1.457a.748.748,0,1,0,0,1.5h1.457a.748.748,0,1,0,0-1.5Z" transform="translate(-284.971 -158.856)" fill="#1bbaa4"/>
      </g>
    </g>
    <g id="Group_60" data-name="Group 60" transform="translate(32.727 11.879)">
      <g id="Group_59" data-name="Group 59" transform="translate(0)">
        <path id="Path_89" data-name="Path 89" d="M105.735,158.856h-1.457a.748.748,0,1,0,0,1.5h1.457a.748.748,0,1,0,0-1.5Z" transform="translate(-103.53 -158.856)" fill="#1bbaa4"/>
      </g>
    </g>
    <g id="Group_62" data-name="Group 62" transform="translate(36.284 20.19)">
      <g id="Group_61" data-name="Group 61" transform="translate(0)">
        <path id="Path_90" data-name="Path 90" d="M163.691,270.007H151.845a.748.748,0,0,0,0,1.5h11.846a.748.748,0,1,0,0-1.5Z" transform="translate(-151.097 -270.007)" fill="#1bbaa4"/>
      </g>
    </g>
    <g id="Group_64" data-name="Group 64" transform="translate(32.348 20.19)">
      <g id="Group_63" data-name="Group 63" transform="translate(0)">
        <path id="Path_91" data-name="Path 91" d="M99.744,270.226a.747.747,0,1,0,.219.529A.753.753,0,0,0,99.744,270.226Z" transform="translate(-98.468 -270.007)" fill="#1bbaa4"/>
      </g>
    </g>
    <g id="Group_66" data-name="Group 66" transform="translate(36.284 25.125)">
      <g id="Group_65" data-name="Group 65" transform="translate(0)">
        <path id="Path_92" data-name="Path 92" d="M163.691,336.005H151.845a.748.748,0,1,0,0,1.5h11.846a.748.748,0,1,0,0-1.5Z" transform="translate(-151.097 -336.005)" fill="#1bbaa4"/>
      </g>
    </g>
    <g id="Group_68" data-name="Group 68" transform="translate(32.348 25.125)">
      <g id="Group_67" data-name="Group 67" transform="translate(0)">
        <path id="Path_93" data-name="Path 93" d="M99.744,336.224a.747.747,0,1,0,.219.529A.753.753,0,0,0,99.744,336.224Z" transform="translate(-98.468 -336.005)" fill="#1bbaa4"/>
      </g>
    </g>
    <g id="Group_70" data-name="Group 70" transform="translate(36.284 30.06)">
      <g id="Group_69" data-name="Group 69" transform="translate(0)">
        <path id="Path_94" data-name="Path 94" d="M163.691,402H151.845a.748.748,0,1,0,0,1.5h11.846a.748.748,0,1,0,0-1.5Z" transform="translate(-151.097 -402.003)" fill="#1bbaa4"/>
      </g>
    </g>
    <g id="Group_72" data-name="Group 72" transform="translate(32.348 30.06)">
      <g id="Group_71" data-name="Group 71" transform="translate(0)">
        <path id="Path_95" data-name="Path 95" d="M99.744,402.222a.747.747,0,1,0,.219.529A.753.753,0,0,0,99.744,402.222Z" transform="translate(-98.468 -402.003)" fill="#1bbaa4"/>
      </g>
    </g>
  </g>
</svg>
