<svg xmlns="http://www.w3.org/2000/svg" width="15.435" height="19.483" viewBox="0 0 15.435 19.483">
  <g id="surface1" transform="translate(-0.5)">
    <path id="Path_137" data-name="Path 137" d="M11,.151A.471.471,0,0,0,10.66,0H3.06A2.571,2.571,0,0,0,.5,2.555V16.927a2.571,2.571,0,0,0,2.56,2.555H13.375a2.571,2.571,0,0,0,2.56-2.555V5.515a.507.507,0,0,0-.136-.329Zm.136,1.511L14.35,5.035H12.26a1.121,1.121,0,0,1-1.125-1.12Zm2.24,16.88H3.06a1.63,1.63,0,0,1-1.619-1.614V2.555A1.63,1.63,0,0,1,3.06.941h7.134V3.915A2.059,2.059,0,0,0,12.26,5.977h2.734V16.927A1.627,1.627,0,0,1,13.375,18.541Zm0,0" fill="#1bbaa4"/>
    <path id="Path_138" data-name="Path 138" d="M97.388,401.934H89.642a.471.471,0,0,0,0,.941h7.751a.471.471,0,1,0,0-.941Zm0,0" transform="translate(-85.298 -386.64)" fill="#1bbaa4"/>
    <path id="Path_139" data-name="Path 139" d="M121.507,177.422a.467.467,0,0,0,.687,0l2.758-2.96a.469.469,0,1,0-.687-.64l-1.944,2.085v-5.139a.471.471,0,0,0-.941,0v5.139l-1.939-2.085a.469.469,0,0,0-.687.64Zm0,0" transform="translate(-113.633 -163.817)" fill="#1bbaa4"/>
  </g>
</svg>
