<svg xmlns="http://www.w3.org/2000/svg" width="21" height="21" viewBox="0 0 21 21">
  <g id="Group_313" data-name="Group 313" transform="translate(281.5 -1108.5)">
    <path id="Path_148" data-name="Path 148" d="M20.806,8.676l-1.75-.7a8.889,8.889,0,0,0-.723-1.74L19.077,4.5a.307.307,0,0,0-.065-.339L16.837,1.988a.307.307,0,0,0-.339-.065l-1.735.743a8.889,8.889,0,0,0-1.74-.723l-.7-1.75A.308.308,0,0,0,12.038,0H8.962a.308.308,0,0,0-.286.193l-.7,1.75a8.883,8.883,0,0,0-1.74.723L4.5,1.922a.308.308,0,0,0-.339.065L1.987,4.163a.308.308,0,0,0-.065.339l.743,1.735a8.893,8.893,0,0,0-.723,1.74l-1.75.7A.308.308,0,0,0,0,8.962v3.076a.308.308,0,0,0,.193.286l1.75.7a8.873,8.873,0,0,0,.723,1.74L1.922,16.5a.307.307,0,0,0,.065.339l2.175,2.175a.307.307,0,0,0,.339.065l1.735-.743a8.879,8.879,0,0,0,1.74.723l.7,1.75A.308.308,0,0,0,8.962,21h3.076a.307.307,0,0,0,.286-.193l.7-1.75a8.883,8.883,0,0,0,1.74-.723l1.735.743a.308.308,0,0,0,.339-.065l2.175-2.175a.308.308,0,0,0,.065-.339l-.743-1.735a8.889,8.889,0,0,0,.723-1.74l1.75-.7A.308.308,0,0,0,21,12.038V8.962A.308.308,0,0,0,20.806,8.676Zm-.422,3.154-1.7.679a.308.308,0,0,0-.182.2,8.262,8.262,0,0,1-.782,1.882.308.308,0,0,0-.015.273l.721,1.682L16.549,18.43l-1.682-.721a.308.308,0,0,0-.273.015,8.265,8.265,0,0,1-1.882.782.308.308,0,0,0-.2.182l-.679,1.7H9.17l-.679-1.7a.307.307,0,0,0-.2-.182,8.262,8.262,0,0,1-1.882-.782.308.308,0,0,0-.273-.015L4.45,18.43,2.57,16.549l.721-1.682a.307.307,0,0,0-.015-.273,8.272,8.272,0,0,1-.782-1.882.308.308,0,0,0-.182-.2l-1.7-.679V9.17l1.7-.679a.307.307,0,0,0,.182-.2,8.261,8.261,0,0,1,.782-1.882.308.308,0,0,0,.015-.273L2.57,4.45,4.45,2.57l1.682.721a.308.308,0,0,0,.273-.015,8.261,8.261,0,0,1,1.882-.782.307.307,0,0,0,.2-.182L9.17.615h2.66l.679,1.7a.307.307,0,0,0,.2.182,8.261,8.261,0,0,1,1.882.782.308.308,0,0,0,.273.015l1.682-.721L18.43,4.45l-.721,1.682a.308.308,0,0,0,.015.273,8.258,8.258,0,0,1,.782,1.882.307.307,0,0,0,.182.2l1.7.679Zm0,0" transform="translate(-281.5 1108.5)" fill="#1bbaa4"/>
    <path id="Path_149" data-name="Path 149" d="M97.968,91a6.968,6.968,0,1,0,6.968,6.968A6.976,6.976,0,0,0,97.968,91Zm0,13.3a6.334,6.334,0,1,1,6.334-6.334A6.342,6.342,0,0,1,97.968,104.3Zm0,0" transform="translate(-368.968 1021.032)" fill="#1bbaa4"/>
    <path id="Path_150" data-name="Path 150" d="M164.257,159.272l4.359,2.517a.388.388,0,0,0,.387,0l4.359-2.517a.387.387,0,0,0,.194-.335V153.9a.387.387,0,0,0-.194-.335L169,151.051a.387.387,0,0,0-.387,0l-4.359,2.517a.387.387,0,0,0-.194.335v5.033A.387.387,0,0,0,164.257,159.272Zm.581-4.7,3.585,2.07v4.139l-3.585-2.07Zm4.359,6.209v-4.139l3.585-2.07v4.139Zm-.387-8.949,3.585,2.07-3.585,2.07-3.585-2.07Zm0,0" transform="translate(-439.809 962.58)" fill="#1bbaa4"/>
  </g>
</svg>
