<svg xmlns="http://www.w3.org/2000/svg" width="19.07" height="19.07" viewBox="0 0 19.07 19.07">
  <g id="Group_311" data-name="Group 311" transform="translate(281 -1215)">
    <g id="customer-support_1_" data-name="customer-support (1)" transform="translate(-281.274 1215)">
      <path id="Path_47" data-name="Path 47" d="M.355,1.825,1.626,4.048a.317.317,0,0,0,.2.151l1.186.3L7.076,8.562l.449-.449L3.4,3.983A.317.317,0,0,0,3.248,3.9L2.109,3.613,1.027,1.719,1.955.791l1.9,1.083.286,1.139a.317.317,0,0,0,.084.148l4.13,4.13L8.8,6.842,4.732,2.775l-.3-1.185a.318.318,0,0,0-.151-.2L2.061.121A.318.318,0,0,0,1.68.172L.409,1.443a.318.318,0,0,0-.054.382Zm0,0" transform="translate(-0.039 -0.077)" fill="#1bbaa4"/>
      <path id="Path_48" data-name="Path 48" d="M181.42,174.169l-6.989,6.989-.449-.449,6.989-6.989Zm0,0" transform="translate(-167.896 -167.907)" fill="#1bbaa4"/>
      <path id="Path_49" data-name="Path 49" d="M51.2,398.99a.318.318,0,0,0-.272-.154H49.024a.317.317,0,0,0-.272.154l-.953,1.588a.318.318,0,0,0,0,.327l.953,1.588a.318.318,0,0,0,.272.154H50.93a.318.318,0,0,0,.272-.154l.953-1.588a.318.318,0,0,0,0-.327Zm-.452,3.023H49.2l-.762-1.271.762-1.271H50.75l.762,1.271Zm0,0" transform="translate(-45.891 -385.492)" fill="#1bbaa4"/>
      <path id="Path_50" data-name="Path 50" d="M15.523,7.625a3.8,3.8,0,0,0,3.7-4.734.318.318,0,0,0-.533-.148L16.708,4.72,15.139,4.2l-.523-1.569L16.593.65a.318.318,0,0,0-.149-.533,3.8,3.8,0,0,0-4.734,3.7,3.729,3.729,0,0,0,.077.744L4.83,11.515a3.748,3.748,0,0,0-.744-.077A3.812,3.812,0,1,0,7.9,15.25a3.738,3.738,0,0,0-.077-.744L9.487,12.84l.728.728a.318.318,0,0,0,.449,0l.159-.159a.356.356,0,0,1,.5.5h0l-.159.159a.318.318,0,0,0,0,.449l3.79,3.79A2.564,2.564,0,1,0,18.6,14.7l-.016-.016-3.79-3.79a.318.318,0,0,0-.449,0l-.159.159a.356.356,0,0,1-.5-.5h0l.159-.159a.318.318,0,0,0,0-.449l-.728-.728,1.666-1.666a3.738,3.738,0,0,0,.744.077Zm1.248,10.8A1.931,1.931,0,0,1,16.1,18.3l2.481-2.481a1.927,1.927,0,0,1-1.805,2.6Zm-3.6-8.257a.991.991,0,0,0,1.4,1.4l3.565,3.568c.039.039.075.08.11.121l-2.716,2.716c-.042-.035-.083-.071-.121-.11l-3.568-3.568a.992.992,0,0,0-1.4-1.4l-.508-.508,2.731-2.726Zm1.283-3.2L7.248,14.18a.318.318,0,0,0-.084.3,3.2,3.2,0,1,1-2.31-2.31.321.321,0,0,0,.3-.084l7.205-7.206a.317.317,0,0,0,.084-.3A3.162,3.162,0,0,1,15.7.641L14.028,2.318a.317.317,0,0,0-.077.325l.635,1.906a.318.318,0,0,0,.2.2l1.906.635a.318.318,0,0,0,.325-.077l1.676-1.676c0,.061.006.121.006.18a3.161,3.161,0,0,1-3.945,3.078.318.318,0,0,0-.3.084h0Zm0,0" transform="translate(0 0)" fill="#1bbaa4"/>
      <path id="Path_51" data-name="Path 51" d="M386.516,385.8l-.449.449-3.177-3.177.449-.449Zm0,0" transform="translate(-369.815 -369.823)" fill="#1bbaa4"/>
    </g>
  </g>
</svg>
