<svg id="settings_1_" data-name="settings (1)" xmlns="http://www.w3.org/2000/svg" width="19.679" height="19.679" viewBox="0 0 19.679 19.679">
  <g id="Group_9" data-name="Group 9" transform="translate(0 0)">
    <path id="Path_17" data-name="Path 17" d="M10.758,19.679H8.921A1.228,1.228,0,0,1,7.7,18.6l-.2-1.538a7.749,7.749,0,0,1-1.127-.467l-1.225.952a1.223,1.223,0,0,1-1.628-.1L2.236,16.149a1.22,1.22,0,0,1-.1-1.623L3.088,13.3a7.57,7.57,0,0,1-.467-1.127l-1.542-.2A1.231,1.231,0,0,1,0,10.758V8.921A1.228,1.228,0,0,1,1.082,7.7l1.538-.2A7.749,7.749,0,0,1,3.087,6.38L2.136,5.155a1.222,1.222,0,0,1,.1-1.628L3.532,2.235a1.221,1.221,0,0,1,1.623-.1l1.225.953a7.721,7.721,0,0,1,1.127-.467L7.7,1.08A1.228,1.228,0,0,1,8.921,0h1.837a1.228,1.228,0,0,1,1.218,1.082l.2,1.538a7.721,7.721,0,0,1,1.127.467l1.225-.952a1.222,1.222,0,0,1,1.628.1l1.291,1.291a1.22,1.22,0,0,1,.1,1.623l-.952,1.226a7.57,7.57,0,0,1,.467,1.127l1.542.2a1.229,1.229,0,0,1,1.079,1.219v1.837A1.228,1.228,0,0,1,18.6,11.977l-1.538.2a7.749,7.749,0,0,1-.467,1.127l.952,1.225a1.221,1.221,0,0,1-.1,1.628l-1.291,1.291a1.219,1.219,0,0,1-1.623.1L13.3,16.591a7.57,7.57,0,0,1-1.127.467l-.2,1.542a1.229,1.229,0,0,1-1.219,1.08Zm-4.42-3.985a.416.416,0,0,1,.2.052,6.882,6.882,0,0,0,1.455.6.409.409,0,0,1,.294.342l.23,1.8a.414.414,0,0,0,.405.364h1.837a.413.413,0,0,0,.4-.36l.23-1.807a.409.409,0,0,1,.294-.342,6.882,6.882,0,0,0,1.455-.6.409.409,0,0,1,.451.034L15.027,16.9a.4.4,0,0,0,.537-.028l1.3-1.3a.405.405,0,0,0,.032-.541L15.78,13.593a.409.409,0,0,1-.034-.451,6.882,6.882,0,0,0,.6-1.455.409.409,0,0,1,.342-.294l1.8-.23a.416.416,0,0,0,.364-.406V8.921a.413.413,0,0,0-.36-.4l-1.807-.23a.409.409,0,0,1-.342-.294,6.882,6.882,0,0,0-.6-1.455.408.408,0,0,1,.034-.451L16.9,4.653a.4.4,0,0,0-.027-.536l-1.3-1.3a.4.4,0,0,0-.541-.032L13.593,3.9a.411.411,0,0,1-.452.034,6.854,6.854,0,0,0-1.455-.6.409.409,0,0,1-.294-.342l-.23-1.8A.416.416,0,0,0,10.758.82H8.921a.413.413,0,0,0-.4.36l-.23,1.807a.411.411,0,0,1-.294.343,6.852,6.852,0,0,0-1.455.6A.411.411,0,0,1,6.087,3.9L4.652,2.784a.4.4,0,0,0-.536.027l-1.3,1.3a.405.405,0,0,0-.032.541L3.9,6.087a.409.409,0,0,1,.034.451,6.84,6.84,0,0,0-.6,1.455.409.409,0,0,1-.342.294l-1.8.23a.414.414,0,0,0-.364.405v1.837a.413.413,0,0,0,.36.4l1.807.23a.409.409,0,0,1,.342.294,6.882,6.882,0,0,0,.6,1.455.408.408,0,0,1-.034.451L2.783,15.027a.4.4,0,0,0,.027.536l1.3,1.3a.405.405,0,0,0,.541.032L6.086,15.78a.422.422,0,0,1,.253-.085Z" transform="translate(0 0)" fill="#1bbaa4"/>
  </g>
  <g id="Group_10" data-name="Group 10" transform="translate(5.74 5.74)">
    <path id="Path_18" data-name="Path 18" d="M11.1,15.2a4.1,4.1,0,1,1,4.1-4.1A4.1,4.1,0,0,1,11.1,15.2Zm0-7.38a3.28,3.28,0,1,0,3.28,3.28A3.283,3.283,0,0,0,11.1,7.82Z" transform="translate(-7 -7)" fill="#1bbaa4"/>
  </g>
</svg>
